HIERARCHY
ROOT Hips
{
	OFFSET 0.000000 0.000000 0.000000
	CHANNELS 6 Xposition Yposition Zposition Zrotation Yrotation Xrotation 
	JOINT LeftUpLeg_virtual
	{
		OFFSET 0.000000 0.000000 0.000000
		CHANNELS 3 Zrotation Yrotation Xrotation
		JOINT LeftUpLeg
		{
			OFFSET 10.205400 -3.823500 0.155100
			CHANNELS 3 Zrotation Yrotation Xrotation
			JOINT LeftLeg
			{
				OFFSET 0.708757 -12.982077 0.567790
				CHANNELS 3 Zrotation Yrotation Xrotation
				JOINT LeftFoot
				{
					OFFSET -0.708756 -10.717838 -2.184338
					CHANNELS 3 Zrotation Yrotation Xrotation
					JOINT LeftToeBase
					{
						OFFSET 0.108149 -7.191104 7.560241
						CHANNELS 3 Zrotation Yrotation Xrotation
						End Site
						{
							OFFSET 0.000000 0.000000 0.000000
						}
					}
				}
			}
		}
	}
	JOINT RightUpLeg_virtual
	{
		OFFSET 0.000000 0.000000 0.000000
		CHANNELS 3 Zrotation Yrotation Xrotation
		JOINT RightUpLeg
		{
			OFFSET -10.205400 -3.823500 0.005500
			CHANNELS 3 Zrotation Yrotation Xrotation
			JOINT RightLeg
			{
				OFFSET -0.708756 -12.982134 0.610632
				CHANNELS 3 Zrotation Yrotation Xrotation
				JOINT RightFoot
				{
					OFFSET 0.708754 -10.717769 -1.945823
					CHANNELS 3 Zrotation Yrotation Xrotation
					JOINT RightToeBase
					{
						OFFSET -0.108140 -7.191069 7.372968
						CHANNELS 3 Zrotation Yrotation Xrotation
						End Site
						{
							OFFSET 0.000000 0.000000 0.000000
						}
					}
				}
			}
		}
	}
	JOINT Spine_virtual
	{
		OFFSET 0.000000 0.000000 0.000000
		CHANNELS 3 Zrotation Yrotation Xrotation
		JOINT Spine
		{
			OFFSET 0.000000 6.876099 0.125700
			CHANNELS 3 Zrotation Yrotation Xrotation
			JOINT Spine1
			{
				OFFSET 0.000000 8.022060 0.146608
				CHANNELS 3 Zrotation Yrotation Xrotation
				JOINT Spine2
				{
					OFFSET 0.000000 9.168068 0.167552
					CHANNELS 3 Zrotation Yrotation Xrotation
					JOINT Neck_virtual
					{
						OFFSET 0.000000 0.000000 0.000000
						CHANNELS 3 Zrotation Yrotation Xrotation
						JOINT Neck
						{
							OFFSET 0.000000 10.314075 0.188496
							CHANNELS 3 Zrotation Yrotation Xrotation
							JOINT Head
							{
								OFFSET 0.000000 7.643700 -2.377400
								CHANNELS 3 Zrotation Yrotation Xrotation
								End Site
								{
									OFFSET 0.000000 0.000000 0.000000
								}
							}
						}
					}
					JOINT LeftShoulder_virtual
					{
						OFFSET 0.000000 0.000000 0.000000
						CHANNELS 3 Zrotation Yrotation Xrotation
						JOINT LeftShoulder
						{
							OFFSET 4.392200 8.824978 0.174984
							CHANNELS 3 Zrotation Yrotation Xrotation
							JOINT LeftArm
							{
								OFFSET 8.771219 -2.981674 -0.026999
								CHANNELS 3 Zrotation Yrotation Xrotation
								JOINT LeftForeArm
								{
									OFFSET 8.512804 0.000000 -0.000000
									CHANNELS 3 Zrotation Yrotation Xrotation
									JOINT LeftHand
									{
										OFFSET 18.484802 0.000000 -0.000000
										CHANNELS 3 Zrotation Yrotation Xrotation
										End Site
										{
											OFFSET 0.000000 0.000000 0.000000
										}
									}
								}
							}
						}
					}
					JOINT RightShoulder_virtual
					{
						OFFSET 0.000000 0.000000 0.000000
						CHANNELS 3 Zrotation Yrotation Xrotation
						JOINT RightShoulder
						{
							OFFSET -4.392200 8.824993 0.141379
							CHANNELS 3 Zrotation Yrotation Xrotation
							JOINT RightArm
							{
								OFFSET -8.771282 -2.981682 -0.094208
								CHANNELS 3 Zrotation Yrotation Xrotation
								JOINT RightForeArm
								{
									OFFSET -8.494598 0.000000 0.000000
									CHANNELS 3 Zrotation Yrotation Xrotation
									JOINT RightHand
									{
										OFFSET -18.483803 0.000000 0.000001
										CHANNELS 3 Zrotation Yrotation Xrotation
										End Site
										{
											OFFSET 0.000000 0.000000 0.000000
										}
									}
								}
							}
						}
					}
				}
			}
		}
	}
}
MOTION
Frames: 8
Frame Time: 0.033333
2.842178 33.305614 -7.262836 179.328502 2.936377 -179.067821 -2.979392 -3.203175 33.441402 4.161861 5.283907 -77.538411 3.349779 -0.859749 50.872912 -8.363510 8.467996 8.753835 0.000000 0.000000 0.000000 2.429521 -5.788245 31.436776 -8.122748 -2.413643 -73.230461 -1.553086 -4.305132 54.431936 5.573609 2.099370 9.759146 0.000000 0.000000 0.000000 3.546462 -6.007198 54.293836 -5.101058 -0.333884 28.621298 1.735138 -2.631727 3.262656 0.044161 -0.140104 0.088633 2.884073 -2.425208 6.362873 13.646861 -0.796017 -6.488324 0.000000 0.000000 0.000000 2.545249 -0.907319 1.237117 -14.523508 -18.018111 -4.768225 -19.632185 -49.386919 -3.300012 -2.346093 -45.000367 0.830329 0.000000 0.000000 0.000000 0.010268 0.030855 0.708570 5.110986 22.808131 -12.085738 5.656294 41.096859 -22.183249 -9.712430 42.328301 -6.560001 0.000000 0.000000 0.000000 
2.823547 33.312279 -7.152950 179.320005 2.982325 -178.947036 -3.141395 -3.311823 33.639696 4.186372 5.364039 -78.080072 3.760618 -0.795244 50.731128 -8.440419 8.477799 8.200879 0.000000 0.000000 0.000000 2.378082 -5.807568 31.551526 -8.294914 -2.226447 -73.921976 -1.685537 -4.196108 54.159305 5.336589 2.449132 10.358245 0.000000 0.000000 0.000000 3.238138 -6.034621 54.514598 -5.310979 -0.319541 28.531105 1.693139 -2.665680 3.544975 0.024593 -0.122871 0.132686 2.817915 -2.526793 6.695689 13.877319 -0.373392 -7.705132 0.000000 0.000000 0.000000 2.633744 -0.979247 1.511407 -13.897229 -17.468516 -4.833472 -20.666554 -48.637224 -2.685529 -2.313520 -44.426713 0.994472 0.000000 0.000000 0.000000 -0.139648 -0.136763 1.046507 5.447543 21.794601 -12.061423 10.380673 40.093221 -23.183571 -9.296956 43.854876 -6.532810 0.000000 0.000000 0.000000 
2.781914 33.391125 -7.009971 179.363869 2.779971 -178.907393 -3.190973 -3.396828 33.436126 4.228776 5.323982 -77.935313 4.237045 -0.688397 50.038369 -8.677179 8.547040 8.079012 0.000000 0.000000 0.000000 2.602517 -5.710964 31.372548 -8.847109 -2.026157 -73.875592 -1.702642 -3.995166 53.572380 4.895062 2.845682 11.040010 0.000000 0.000000 0.000000 3.251530 -6.025592 54.568885 -5.516459 -0.486306 28.145854 1.584188 -2.681255 3.577604 0.029410 -0.074792 0.103785 2.673054 -2.639753 6.944901 13.784504 0.038242 -8.377453 0.000000 0.000000 0.000000 2.504674 -1.194602 1.774815 -13.519563 -16.862982 -4.533388 -21.563247 -47.655995 -2.131264 -2.280832 -43.650001 1.167640 0.000000 0.000000 0.000000 -0.170908 -0.182863 1.288457 6.107210 20.928832 -11.793601 15.226565 38.882942 -22.884481 -9.580781 45.568249 -7.568501 0.000000 0.000000 0.000000 
2.688375 33.510262 -6.846005 179.428113 2.251176 -178.890905 -3.248132 -3.564546 32.647293 4.325529 5.083702 -77.081704 4.765589 -0.543131 49.211397 -9.105966 8.591984 8.390863 0.000000 0.000000 0.000000 2.833048 -6.265139 30.590826 -9.512322 -1.710300 -73.136744 -1.600799 -3.942674 52.555498 4.466705 3.325820 11.725927 0.000000 0.000000 0.000000 3.466071 -6.027498 53.864487 -5.628933 -0.772591 27.696866 1.456083 -2.662764 3.665958 0.034360 -0.016364 0.119337 2.473259 -2.726963 6.957780 13.240263 0.482998 -8.910347 0.000000 0.000000 0.000000 2.379617 -1.336562 1.780687 -13.560914 -16.201617 -4.347305 -22.890093 -46.366118 -1.079052 -2.243799 -42.904817 1.332170 0.000000 0.000000 0.000000 -0.252807 -0.173472 1.346973 6.811412 20.072333 -11.478382 19.400640 37.779180 -21.722612 -9.405410 47.480016 -7.919746 0.000000 0.000000 0.000000 
2.534729 33.647964 -6.680227 179.561548 1.733444 -178.881753 -3.346763 -3.817231 31.414943 4.566423 4.618943 -75.660819 5.331396 -0.401761 48.497949 -9.684289 8.561177 9.016721 0.000000 0.000000 0.000000 3.124330 -6.586456 29.411549 -10.148720 -1.438934 -71.697022 -1.415141 -3.831423 51.328124 4.038589 3.749399 12.396588 0.000000 0.000000 0.000000 3.705661 -5.985636 52.383357 -5.699187 -1.175431 27.208689 1.307360 -2.693019 3.920638 0.012632 -0.039139 0.162669 2.210745 -2.808320 7.021978 12.587942 0.912701 -9.555923 0.000000 0.000000 0.000000 2.263857 -1.176425 1.818919 -13.866111 -15.360098 -4.229022 -24.322329 -44.754620 0.212687 -2.021462 -42.642783 1.383096 0.000000 0.000000 0.000000 -0.506908 -0.163814 1.384054 7.170497 19.577093 -10.963478 22.574146 36.713182 -19.880177 -9.194802 49.699185 -7.882833 0.000000 0.000000 0.000000 
2.369545 33.816315 -6.497844 179.761208 1.243394 -178.920070 -3.555384 -4.019245 29.984749 4.985272 4.012162 -73.979452 5.921065 -0.348804 47.897046 -10.327711 8.404483 9.866612 0.000000 0.000000 0.000000 3.407447 -6.644943 28.093143 -10.577276 -1.218301 -69.739544 -1.177308 -3.634672 49.986316 3.622354 4.061819 13.103676 0.000000 0.000000 0.000000 4.101816 -5.878971 50.847992 -5.761422 -1.503957 26.477650 1.187103 -2.604933 3.875254 0.011316 0.019008 0.188141 2.058714 -2.884255 7.002796 11.876394 1.269381 -9.888324 0.000000 0.000000 0.000000 2.074103 -1.210298 1.814883 -14.319209 -14.621442 -3.969425 -25.868841 -42.660040 1.842358 -1.904812 -42.748716 1.592669 0.000000 0.000000 0.000000 -0.598504 -0.232336 1.423534 7.602111 19.366335 -10.534069 25.102743 35.694244 -17.919543 -9.189033 51.416015 -8.063913 0.000000 0.000000 0.000000 
2.199447 34.008556 -6.347591 -179.985785 1.173425 -178.987238 -3.653802 -3.992453 28.695937 5.594559 3.507471 -72.411521 6.438622 -0.424580 47.211121 -11.039778 7.958139 10.662653 0.000000 0.000000 0.000000 3.615470 -6.248596 26.919234 -10.895134 -0.709413 -67.590801 -0.833954 -3.132804 48.496023 3.271798 4.251774 13.927010 0.000000 0.000000 0.000000 4.463165 -5.505048 49.348400 -5.816578 -1.779501 25.730523 1.251000 -2.516214 3.814579 -0.073344 0.059322 0.096951 1.957779 -2.743585 7.006551 11.145391 1.558912 -10.303450 0.000000 0.000000 0.000000 1.968989 -1.115980 1.832567 -14.990969 -14.017924 -3.734943 -27.497788 -40.386181 3.380207 -1.746568 -43.237123 1.753973 0.000000 0.000000 0.000000 -0.685822 -0.057640 1.326310 8.002210 19.162159 -9.723973 26.843980 34.737092 -16.091842 -9.492550 53.178507 -8.590179 0.000000 0.000000 0.000000 
2.054449 34.222572 -6.201903 -179.725623 0.968356 -179.079077 -3.703989 -4.012665 27.664759 6.214787 3.082840 -71.055202 6.906882 -0.617982 46.307436 -11.584759 7.430670 11.607747 0.000000 0.000000 0.000000 3.703685 -5.751094 26.054959 -10.699170 -0.478293 -65.446504 -0.391862 -2.311942 46.707361 2.992129 4.347126 14.781475 0.000000 0.000000 0.000000 4.888812 -5.385406 47.966827 -5.810731 -2.076595 24.997328 1.151585 -2.372130 3.787575 0.010226 0.102143 0.082004 1.825905 -2.624267 6.901259 10.474611 1.773192 -10.759409 0.000000 0.000000 0.000000 1.905616 -0.945268 1.872300 -15.857314 -13.601141 -3.635079 -29.453002 -38.379314 5.040531 -1.610348 -43.675460 1.933899 0.000000 0.000000 0.000000 -0.783341 0.118087 1.243798 8.373369 19.111590 -8.962091 28.364951 33.912518 -14.488945 -10.038180 55.030547 -9.134128 0.000000 0.000000 0.000000 
